<?xml version="1.0" encoding="UTF-8"?>
<svg width="1024px" height="1024px" viewBox="0 0 1024 1024" version="1.1" xmlns="http://www.w3.org/2000/svg" xmlns:xlink="http://www.w3.org/1999/xlink">
    <!-- Generator: Sketch 60 (88103) - https://sketch.com -->
    <title>AppIcon@2x</title>
    <desc>Created with Sketch.</desc>
    <g id="AppIcon" stroke="none" stroke-width="1" fill="none" fill-rule="evenodd">
        <rect fill="#F8E71C" x="0" y="0" width="1024" height="1024"></rect>
        <path d="M233.575,505.03 C212.104893,505.03 192.820085,500.565045 175.72,491.635 C158.619914,482.704955 145.225048,470.307579 135.535,454.4425 C125.844952,438.577421 121,420.6701 121,400.72 C121,380.7699 125.844952,362.862579 135.535,346.9975 C145.225048,331.132421 158.619914,318.735045 175.72,309.805 C192.820085,300.874955 212.104893,296.41 233.575,296.41 C255.045107,296.41 274.329914,300.874955 291.43,309.805 C308.530086,318.735045 321.924952,331.132421 331.615,346.9975 C341.305048,362.862579 346.15,380.7699 346.15,400.72 C346.15,420.6701 341.305048,438.577421 331.615,454.4425 C321.924952,470.307579 308.530086,482.704955 291.43,491.635 C274.329914,500.565045 255.045107,505.03 233.575,505.03 Z M233.575,450.595 C241.935042,450.595 249.487466,448.55252 256.2325,444.4675 C262.977534,440.38248 268.34498,434.587538 272.335,427.0825 C276.32502,419.577462 278.32,410.79005 278.32,400.72 C278.32,390.64995 276.32502,381.862538 272.335,374.3575 C268.34498,366.852462 262.977534,361.05752 256.2325,356.9725 C249.487466,352.88748 241.935042,350.845 233.575,350.845 C225.214958,350.845 217.662534,352.88748 210.9175,356.9725 C204.172466,361.05752 198.80502,366.852462 194.815,374.3575 C190.82498,381.862538 188.83,390.64995 188.83,400.72 C188.83,410.79005 190.82498,419.577462 194.815,427.0825 C198.80502,434.587538 204.172466,440.38248 210.9175,444.4675 C217.662534,448.55252 225.214958,450.595 233.575,450.595 Z M368.665,289 L433.075,289 L433.075,500.47 L368.665,500.47 L368.665,289 Z M634,289 L634,500.47 L572.725,500.47 L572.725,487.645 C563.414953,498.095052 549.165096,503.32 529.975,503.32 C516.294932,503.32 503.707557,500.042533 492.2125,493.4875 C480.717443,486.932467 471.597534,477.480062 464.8525,465.13 C458.107466,452.779938 454.735,438.530081 454.735,422.38 C454.735,406.229919 458.107466,392.027561 464.8525,379.7725 C471.597534,367.517439 480.717443,358.112533 492.2125,351.5575 C503.707557,345.002467 516.294932,341.725 529.975,341.725 C547.265086,341.725 560.469954,346.189955 569.59,355.12 L569.59,289 L634,289 Z M545.365,453.16 C552.775037,453.16 558.854976,450.452527 563.605,445.0375 C568.355024,439.622473 570.73,432.070048 570.73,422.38 C570.73,412.689952 568.355024,405.185027 563.605,399.865 C558.854976,394.544973 552.775037,391.885 545.365,391.885 C537.954963,391.885 531.875024,394.544973 527.125,399.865 C522.374976,405.185027 520,412.689952 520,422.38 C520,432.070048 522.374976,439.622473 527.125,445.0375 C531.875024,450.452527 537.954963,453.16 545.365,453.16 Z M128.98,532.97 L227.305,532.97 C249.535111,532.97 269.152415,537.00746 286.1575,545.0825 C303.162585,553.15754 316.367453,564.699925 325.7725,579.71 C335.177547,594.720075 339.88,612.389898 339.88,632.72 C339.88,653.050102 335.177547,670.719925 325.7725,685.73 C316.367453,700.740075 303.162585,712.28246 286.1575,720.3575 C269.152415,728.43254 249.535111,732.47 227.305,732.47 L128.98,732.47 L128.98,532.97 Z M224.455,680.03 C238.895072,680.03 250.437457,675.897541 259.0825,667.6325 C267.727543,659.367459 272.05,647.730075 272.05,632.72 C272.05,617.709925 267.727543,606.072541 259.0825,597.8075 C250.437457,589.542459 238.895072,585.41 224.455,585.41 L196.24,585.41 L196.24,680.03 L224.455,680.03 Z M528.265,654.38 L528.251151,654.941237 C528.187839,656.6778 527.907457,661.525687 527.41,669.485 L419.11,669.485 C421.390011,675.375029 425.189973,679.887484 430.51,683.0225 C435.830027,686.157516 442.47996,687.725 450.46,687.725 C457.300034,687.725 463.047477,686.870009 467.7025,685.16 C472.357523,683.449991 477.439972,680.505021 482.95,676.325 L516.58,710.24 C501.379924,726.960084 478.675151,735.32 448.465,735.32 C429.654906,735.32 413.125071,731.852535 398.875,724.9175 C384.624929,717.982465 373.605039,708.340062 365.815,695.99 C358.024961,683.639938 354.13,669.770077 354.13,654.38 C354.13,638.799922 357.977462,624.882561 365.6725,612.6275 C373.367538,600.372439 383.912433,590.825034 397.3075,583.985 C410.702567,577.144966 425.759916,573.725 442.48,573.725 C458.250079,573.725 472.642435,576.859969 485.6575,583.13 C498.672565,589.400031 509.027462,598.614939 516.7225,610.775 C524.417538,622.935061 528.265,637.469915 528.265,654.38 Z M443.05,617.615 C436.399967,617.615 430.890022,619.419982 426.52,623.03 C422.149978,626.640018 419.300007,631.769967 417.97,638.42 L468.13,638.42 C466.799993,631.959968 463.950022,626.877519 459.58,623.1725 C455.209978,619.467481 449.700033,617.615 443.05,617.615 Z M618.325,573.725 C645.685137,573.725 666.584928,579.852439 681.025,592.1075 C695.465072,604.362561 702.685,623.219873 702.685,648.68 L702.685,732.47 L642.835,732.47 L642.835,711.95 C635.424963,727.530078 620.70011,735.32 598.66,735.32 C586.309938,735.32 575.812543,733.182521 567.1675,728.9075 C558.522457,724.632479 551.967522,718.837537 547.5025,711.5225 C543.037478,704.207463 540.805,695.990046 540.805,686.87 C540.805,671.479923 546.694941,659.79504 558.475,651.815 C570.109626,643.933479 587.674824,639.944126 611.171109,639.846824 L637.99,639.845 C635.89999,627.684939 626.115087,621.605 608.635,621.605 C601.604965,621.605 594.480036,622.697489 587.26,624.8825 C580.039964,627.067511 573.865026,630.059981 568.735,633.86 L548.215,591.395 C557.145045,585.884972 567.927437,581.562516 580.5625,578.4275 C593.197563,575.292484 605.784937,573.725 618.325,573.725 Z M618.04,696.56 C622.600023,696.56 626.684982,695.325012 630.295,692.855 C633.905018,690.384988 636.564991,686.680025 638.275,681.74 L638.275,670.91 L622.315,670.91 C609.204934,670.91 602.65,675.279956 602.65,684.02 C602.65,687.630018 604.027486,690.622488 606.7825,692.9975 C609.537514,695.372512 613.289976,696.56 618.04,696.56 Z M903.04,521 L903.04,732.47 L841.765,732.47 L841.765,719.645 C832.454953,730.095052 818.205096,735.32 799.015,735.32 C785.334932,735.32 772.747557,732.042533 761.2525,725.4875 C749.757443,718.932467 740.637534,709.480062 733.8925,697.13 C727.147466,684.779938 723.775,670.530081 723.775,654.38 C723.775,638.229919 727.147466,624.027561 733.8925,611.7725 C740.637534,599.517439 749.757443,590.112533 761.2525,583.5575 C772.747557,577.002467 785.334932,573.725 799.015,573.725 C816.305086,573.725 829.509954,578.189955 838.63,587.12 L838.63,521 L903.04,521 Z M814.405,623.885 C806.994963,623.885 800.915024,626.544973 796.165,631.865 C791.414976,637.185027 789.04,644.689952 789.04,654.38 C789.04,664.070048 791.414976,671.622473 796.165,677.0375 C800.915024,682.452527 806.994963,685.16 814.405,685.16 C821.815037,685.16 827.894976,682.452527 832.645,677.0375 C837.395024,671.622473 839.77,664.070048 839.77,654.38 C839.77,644.689952 837.395024,637.185027 832.645,631.865 C827.894976,626.544973 821.815037,623.885 814.405,623.885 Z" id="OldDead" fill="#000000" fill-rule="nonzero"></path>
    </g>
</svg>