<svg xmlns="http://www.w3.org/2000/svg" width="180" height="60" viewBox="0 0 180 60">
  <path d="M166.02 0h.8l1.4.02c1 .01 2 .1 3 .27a9.7 9.7 0 017.99 8c.16.98.25 1.99.27 3v1.38c.02.54.02 1.08.02 1.63v31.4c0 .55 0 1.1-.02 1.64v1.38c-.02 1-.11 2.01-.28 3a9.6 9.6 0 01-5.13 7.05c-.9.45-1.86.77-2.86.95-1 .16-2 .25-3 .26l-1.38.02H12.66c-.46 0-.91 0-1.38-.02-1-.01-2.01-.1-3-.26-1-.18-1.96-.5-2.86-.95A9.41 9.41 0 013 57a9.88 9.88 0 01-2.7-5.28c-.18-.99-.27-2-.28-3L0 47.34V12.67c0-.46 0-.92.02-1.38.01-1.01.1-2.02.27-3A9.9 9.9 0 013 2.98 9.66 9.66 0 018.29.3c.99-.17 2-.26 3-.27L12.66 0H166.02zm.8 1.31H12.67l-1.36.02c-.94.01-1.88.1-2.8.25a8.35 8.35 0 00-6.92 6.94c-.16.92-.25 1.86-.26 2.8l-.02 1.35v34.66l.02 1.36c.01.94.1 1.88.25 2.81a8.58 8.58 0 002.35 4.58 8.1 8.1 0 002.1 1.52c.77.4 1.61.68 2.48.83.92.15 1.86.23 2.8.24l1.36.02h154.16c.44 0 .9 0 1.34-.02.94-.01 1.88-.1 2.8-.24a8.8 8.8 0 002.51-.83 8.22 8.22 0 004.43-6.12c.16-.91.24-1.84.26-2.78v-1.39c.02-.54.02-1.07.02-1.61V13.76c0-.36 0-.72-.02-1.1v-1.33c-.02-.95-.1-1.9-.26-2.83a8.4 8.4 0 00-6.93-6.93c-.92-.15-1.86-.23-2.79-.24l-1.37-.02z"/>
  <path d="M37.15 30.45a7.42 7.42 0 013.54-6.23A7.6 7.6 0 0034.7 21c-2.52-.27-4.96 1.5-6.24 1.5-1.31 0-3.29-1.48-5.42-1.43a7.97 7.97 0 00-6.7 4.09c-2.9 5.02-.74 12.4 2.04 16.46 1.39 1.99 3.01 4.21 5.14 4.13 2.08-.08 2.86-1.32 5.37-1.32 2.49 0 3.21 1.32 5.38 1.27 2.24-.03 3.64-2 4.98-4 1-1.42 1.77-2.98 2.28-4.64a7.17 7.17 0 01-4.38-6.6zM33.06 18.32a7.3 7.3 0 001.67-5.24 7.44 7.44 0 00-4.81 2.49 6.95 6.95 0 00-1.72 5.04 6.15 6.15 0 004.86-2.3z"/>
  <path d="M63.45 40.7h-7.1l-1.7 5.04h-3l6.72-18.62h3.12l6.73 18.62h-3.06l-1.7-5.03zM57.1 38.4h5.63l-2.78-8.17h-.08l-2.77 8.17zM82.74 38.95c0 4.22-2.26 6.94-5.67 6.94a4.6 4.6 0 01-4.27-2.38h-.07v6.73h-2.78V32.16h2.7v2.26h.05a4.82 4.82 0 014.32-2.4c3.45 0 5.72 2.73 5.72 6.93zm-2.87 0c0-2.74-1.42-4.55-3.58-4.55-2.13 0-3.57 1.84-3.57 4.55 0 2.74 1.44 4.57 3.57 4.57 2.16 0 3.58-1.8 3.58-4.57zM97.69 38.95c0 4.22-2.26 6.94-5.67 6.94a4.6 4.6 0 01-4.27-2.38h-.07v6.73H84.9V32.16h2.7v2.26h.05a4.82 4.82 0 014.33-2.4c3.44 0 5.72 2.73 5.72 6.93zm-2.87 0c0-2.74-1.42-4.55-3.59-4.55-2.13 0-3.56 1.84-3.56 4.55 0 2.74 1.43 4.57 3.56 4.57 2.17 0 3.6-1.8 3.6-4.57zM107.57 40.55c.2 1.85 2 3.06 4.45 3.06 2.35 0 4.04-1.2 4.04-2.87 0-1.45-1.02-2.32-3.43-2.9l-2.42-.6c-3.42-.82-5-2.42-5-5.01 0-3.22 2.8-5.42 6.77-5.42 3.94 0 6.64 2.2 6.73 5.42h-2.82c-.17-1.86-1.7-2.98-3.95-2.98-2.24 0-3.78 1.13-3.78 2.78 0 1.32.98 2.1 3.38 2.69l2.05.5c3.83.9 5.41 2.44 5.41 5.17 0 3.48-2.77 5.66-7.19 5.66-4.13 0-6.92-2.13-7.1-5.5h2.86zM125.02 28.95v3.21h2.58v2.21h-2.58v7.49c0 1.16.52 1.7 1.65 1.7.3 0 .61-.02.92-.06v2.2c-.51.09-1.03.13-1.55.12-2.75 0-3.82-1.03-3.82-3.66v-7.79h-1.98v-2.2h1.98v-3.22h2.8zM129.1 38.95c0-4.27 2.51-6.95 6.44-6.95 3.94 0 6.44 2.68 6.44 6.95 0 4.29-2.5 6.96-6.44 6.96-3.95 0-6.44-2.67-6.44-6.96zm10.04 0c0-2.93-1.34-4.66-3.6-4.66s-3.6 1.75-3.6 4.66c0 2.95 1.34 4.66 3.6 4.66s3.6-1.71 3.6-4.66zM144.28 32.16h2.66v2.32h.06a3.24 3.24 0 013.27-2.46c.32 0 .64.04.95.1v2.61a3.9 3.9 0 00-1.25-.17 2.8 2.8 0 00-2.9 3.13v8.05h-2.8V32.16zM164.08 41.76c-.38 2.46-2.78 4.15-5.85 4.15-3.95 0-6.4-2.64-6.4-6.9 0-4.25 2.46-7.01 6.28-7.01 3.76 0 6.12 2.58 6.12 6.7v.95h-9.59v.17a3.54 3.54 0 003.65 3.85 3.07 3.07 0 003.14-1.91h2.65zm-9.43-4.06h6.8a3.27 3.27 0 00-3.34-3.44 3.44 3.44 0 00-3.46 3.44z"/>
  <path d="M56.74 13.1a3.96 3.96 0 014.21 4.44c0 2.86-1.54 4.5-4.21 4.5H53.5V13.1h3.23zm-1.84 7.68h1.68a2.81 2.81 0 002.96-3.22 2.82 2.82 0 00-2.96-3.2H54.9v6.42zM62.52 18.67a3.2 3.2 0 116.37 0 3.2 3.2 0 11-6.37 0zm5 0c0-1.47-.66-2.32-1.81-2.32-1.16 0-1.81.85-1.81 2.32 0 1.47.65 2.32 1.8 2.32 1.16 0 1.82-.85 1.82-2.32zM77.36 22.05h-1.38l-1.4-4.98h-.1l-1.4 4.98h-1.36l-1.87-6.76h1.36l1.2 5.16h.1l1.4-5.16h1.27l1.4 5.16h.1l1.2-5.16h1.33zM80.78 15.3h1.28v1.07h.1a2.02 2.02 0 012.02-1.2 2.2 2.2 0 012.34 2.5v4.38h-1.34V18c0-1.09-.47-1.63-1.45-1.63a1.55 1.55 0 00-1.62 1.72v3.95h-1.33v-6.76zM88.64 12.66h1.33v9.39h-1.33zM91.83 18.67a3.2 3.2 0 116.37 0 3.2 3.2 0 11-6.37 0zm5 0c0-1.47-.66-2.32-1.82-2.32-1.15 0-1.8.85-1.8 2.32 0 1.47.65 2.32 1.8 2.32 1.16 0 1.82-.85 1.82-2.32zM99.6 20.14c0-1.22.9-1.92 2.51-2.02l1.83-.1v-.59c0-.71-.47-1.11-1.38-1.11-.74 0-1.26.27-1.4.75h-1.3c.14-1.16 1.23-1.9 2.76-1.9 1.7 0 2.65.83 2.65 2.26v4.62h-1.28v-.95h-.1c-.44.7-1.22 1.1-2.04 1.06a2.04 2.04 0 01-2.25-2.02zm4.34-.58v-.57l-1.65.11c-.93.06-1.35.38-1.35.97 0 .61.53.97 1.25.97a1.6 1.6 0 001.75-1.48zM107.02 18.67c0-2.14 1.1-3.49 2.8-3.49.87-.04 1.67.42 2.08 1.19h.1v-3.71h1.33v9.39h-1.28v-1.07h-.1a2.34 2.34 0 01-2.12 1.18c-1.72 0-2.8-1.35-2.8-3.5zm1.38 0c0 1.43.67 2.3 1.8 2.3s1.82-.88 1.82-2.3c0-1.4-.7-2.3-1.82-2.3s-1.8.88-1.8 2.3zM118.84 18.67a3.2 3.2 0 116.38 0 3.2 3.2 0 11-6.38 0zm5 0c0-1.47-.65-2.32-1.8-2.32-1.17 0-1.82.85-1.82 2.32 0 1.47.65 2.32 1.81 2.32 1.16 0 1.81-.85 1.81-2.32zM127 15.3h1.29v1.07h.1a2.02 2.02 0 012.01-1.2 2.2 2.2 0 012.34 2.5v4.38h-1.33V18c0-1.09-.47-1.63-1.46-1.63a1.55 1.55 0 00-1.61 1.72v3.95H127v-6.76zM140.27 13.61v1.71h1.47v1.13h-1.47v3.47c0 .7.3 1.02.96 1.02.17 0 .34-.01.5-.03V22c-.23.05-.48.07-.72.07-1.48 0-2.07-.52-2.07-1.82v-3.81h-1.07v-1.13h1.07v-1.7h1.33zM143.56 12.66h1.32v3.72h.1a2.08 2.08 0 012.06-1.21 2.23 2.23 0 012.33 2.52v4.36h-1.34V18c0-1.07-.5-1.62-1.44-1.62a1.58 1.58 0 00-1.7 1.71v3.95h-1.33v-9.4zM157.14 20.22a2.74 2.74 0 01-2.92 1.96 3.07 3.07 0 01-3.13-3.49 3.12 3.12 0 013.12-3.53c1.88 0 3.01 1.29 3.01 3.4v.47h-4.77v.08a1.79 1.79 0 001.8 1.93c.65.08 1.29-.24 1.6-.82h1.3zm-4.69-2.17h3.41a1.63 1.63 0 00-1.66-1.75 1.73 1.73 0 00-1.75 1.75z"/>
</svg>
